<?xml version="1.0" standalone="no"?>
<!DOCTYPE svg PUBLIC "-//W3C//DTD SVG 20010904//EN"
 "http://www.w3.org/TR/2001/REC-SVG-20010904/DTD/svg10.dtd">
<svg version="1.0" xmlns="http://www.w3.org/2000/svg"
 width="800.000000pt" height="800.000000pt" viewBox="0 0 800.000000 800.000000"
 preserveAspectRatio="xMidYMid meet">

<g transform="translate(0.000000,800.000000) scale(0.100000,-0.100000)"
fill="#ffffff50" stroke="none">
<path d="M3653 6914 c-546 -66 -1071 -288 -1503 -637 -448 -361 -804 -895
-965 -1447 -37 -129 -79 -322 -91 -422 l-6 -58 709 0 710 0 17 63 c132 475
505 872 971 1033 172 60 316 84 507 84 580 1 1112 -331 1370 -855 45 -90 88
-203 108 -282 l11 -43 713 0 c675 0 714 1 710 18 -2 9 -13 71 -24 138 -111
666 -477 1303 -1001 1741 -445 372 -978 600 -1555 668 -160 19 -524 18 -681
-1z"/>
<path d="M3785 4941 c-290 -69 -538 -270 -661 -536 -170 -369 -87 -817 204
-1097 385 -370 983 -363 1357 16 185 186 275 408 275 676 0 270 -94 498 -281
682 -124 123 -270 207 -439 253 -101 27 -351 30 -455 6z"/>
<path d="M1094 3593 c4 -32 18 -112 31 -178 230 -1142 1125 -2044 2265 -2285
386 -82 813 -83 1201 -5 912 184 1698 811 2082 1661 106 235 186 498 225 747
l19 117 -713 0 -713 0 -11 -42 c-36 -145 -139 -364 -237 -501 -77 -108 -247
-277 -358 -356 -104 -73 -294 -169 -409 -206 -174 -56 -266 -69 -476 -69 -165
0 -211 3 -300 22 -309 67 -561 203 -780 422 -181 180 -301 375 -377 612 l-38
118 -709 0 -709 0 7 -57z"/>
</g>
</svg>
